<mxfile host="app.diagrams.net" agent="Mozilla/5.0 (Windows NT 10.0; Win64; x64; rv:127.0) Gecko/20100101 Firefox/127.0" version="24.7.6">
  <diagram name="Page-1" id="4PM28wPzomua8VURjb8s">
    <mxGraphModel dx="1658" dy="890" grid="1" gridSize="10" guides="1" tooltips="1" connect="1" arrows="1" fold="1" page="1" pageScale="1" pageWidth="827" pageHeight="1169" math="1" shadow="0">
      <root>
        <mxCell id="0" />
        <mxCell id="1" parent="0" />
        <mxCell id="vXLXtyZZ7c6KgQ94-d6F-25" value="&lt;div align=&quot;left&quot; style=&quot;font-size: 20px;&quot;&gt;&lt;font face=&quot;Roman Serif&quot; color=&quot;#4d4d4d&quot; data-font-src=&quot;https://www.dafont.com/romanserif.font&quot;&gt;Defines&lt;/font&gt;&lt;/div&gt;&lt;div align=&quot;left&quot; style=&quot;font-size: 20px;&quot;&gt;&lt;font face=&quot;8EVrfRt7m9GwIb6baU3-&quot; color=&quot;#4d4d4d&quot;&gt;Based on CDFs&lt;/font&gt;&lt;/div&gt;&lt;div align=&quot;left&quot; style=&quot;font-size: 20px;&quot;&gt;&lt;font face=&quot;8EVrfRt7m9GwIb6baU3-&quot; color=&quot;#4d4d4d&quot;&gt;Focal sets are intervals forming a lattice &lt;/font&gt;&lt;font face=&quot;8EVrfRt7m9GwIb6baU3-&quot;&gt;&lt;br style=&quot;font-size: 20px;&quot;&gt;&lt;/font&gt;&lt;/div&gt;" style="text;html=1;align=left;verticalAlign=middle;whiteSpace=wrap;rounded=0;fontFamily=Roman Serif;fontSource=https%3A%2F%2Fwww.myfonts.com%2Ffr%2Fpages%2Ftags%2Froman%2520serif-fonts;" parent="1" vertex="1">
          <mxGeometry x="510" y="620" width="190" height="130" as="geometry" />
        </mxCell>
        <mxCell id="vXLXtyZZ7c6KgQ94-d6F-1" value="Imprecise Probabilities" style="rounded=1;whiteSpace=wrap;html=1;fontFamily=Roman Serif;fontSource=https%3A%2F%2Fwww.myfonts.com%2Ffr%2Fpages%2Ftags%2Froman%2520serif-fonts;fontSize=24;" parent="1" vertex="1">
          <mxGeometry x="270" y="270" width="180" height="60" as="geometry" />
        </mxCell>
        <mxCell id="vXLXtyZZ7c6KgQ94-d6F-20" style="edgeStyle=orthogonalEdgeStyle;rounded=0;orthogonalLoop=1;jettySize=auto;html=1;exitX=0.5;exitY=1;exitDx=0;exitDy=0;fontFamily=Roman Serif;fontSource=https%3A%2F%2Fwww.myfonts.com%2Ffr%2Fpages%2Ftags%2Froman%2520serif-fonts;" parent="1" source="vXLXtyZZ7c6KgQ94-d6F-2" target="vXLXtyZZ7c6KgQ94-d6F-19" edge="1">
          <mxGeometry relative="1" as="geometry" />
        </mxCell>
        <mxCell id="vXLXtyZZ7c6KgQ94-d6F-2" value="Belief Functions" style="rounded=1;whiteSpace=wrap;html=1;fontFamily=Roman Serif;fontSource=https%3A%2F%2Fwww.myfonts.com%2Ffr%2Fpages%2Ftags%2Froman%2520serif-fonts;fontSize=24;" parent="1" vertex="1">
          <mxGeometry x="270" y="405" width="180" height="60" as="geometry" />
        </mxCell>
        <mxCell id="vXLXtyZZ7c6KgQ94-d6F-3" value="Possibility Distributions" style="rounded=1;whiteSpace=wrap;html=1;fontFamily=Roman Serif;fontSource=https%3A%2F%2Fwww.myfonts.com%2Ffr%2Fpages%2Ftags%2Froman%2520serif-fonts;fontSize=24;" parent="1" vertex="1">
          <mxGeometry x="40" y="550" width="180" height="60" as="geometry" />
        </mxCell>
        <mxCell id="vXLXtyZZ7c6KgQ94-d6F-4" value="P-boxes" style="rounded=1;whiteSpace=wrap;html=1;fontFamily=Roman Serif;fontSource=https%3A%2F%2Fwww.myfonts.com%2Ffr%2Fpages%2Ftags%2Froman%2520serif-fonts;fontSize=24;" parent="1" vertex="1">
          <mxGeometry x="498" y="550" width="178" height="60" as="geometry" />
        </mxCell>
        <mxCell id="vXLXtyZZ7c6KgQ94-d6F-5" value="" style="endArrow=classic;html=1;rounded=0;exitX=0.5;exitY=1;exitDx=0;exitDy=0;entryX=0.5;entryY=0;entryDx=0;entryDy=0;fontFamily=Roman Serif;fontSource=https%3A%2F%2Fwww.myfonts.com%2Ffr%2Fpages%2Ftags%2Froman%2520serif-fonts;fontSize=20;" parent="1" source="vXLXtyZZ7c6KgQ94-d6F-1" target="vXLXtyZZ7c6KgQ94-d6F-2" edge="1">
          <mxGeometry width="50" height="50" relative="1" as="geometry">
            <mxPoint x="390" y="440" as="sourcePoint" />
            <mxPoint x="440" y="390" as="targetPoint" />
          </mxGeometry>
        </mxCell>
        <mxCell id="vXLXtyZZ7c6KgQ94-d6F-6" value="" style="endArrow=classic;html=1;rounded=0;exitX=0.25;exitY=1;exitDx=0;exitDy=0;entryX=0.5;entryY=0;entryDx=0;entryDy=0;fontFamily=Roman Serif;fontSource=https%3A%2F%2Fwww.myfonts.com%2Ffr%2Fpages%2Ftags%2Froman%2520serif-fonts;fontSize=20;" parent="1" source="vXLXtyZZ7c6KgQ94-d6F-2" target="vXLXtyZZ7c6KgQ94-d6F-3" edge="1">
          <mxGeometry width="50" height="50" relative="1" as="geometry">
            <mxPoint x="390" y="440" as="sourcePoint" />
            <mxPoint x="440" y="390" as="targetPoint" />
          </mxGeometry>
        </mxCell>
        <mxCell id="vXLXtyZZ7c6KgQ94-d6F-7" value="" style="endArrow=classic;html=1;rounded=0;exitX=0.75;exitY=1;exitDx=0;exitDy=0;entryX=0.5;entryY=0;entryDx=0;entryDy=0;fontFamily=Roman Serif;fontSource=https%3A%2F%2Fwww.myfonts.com%2Ffr%2Fpages%2Ftags%2Froman%2520serif-fonts;fontSize=20;" parent="1" source="vXLXtyZZ7c6KgQ94-d6F-2" target="vXLXtyZZ7c6KgQ94-d6F-4" edge="1">
          <mxGeometry width="50" height="50" relative="1" as="geometry">
            <mxPoint x="390" y="440" as="sourcePoint" />
            <mxPoint x="440" y="390" as="targetPoint" />
          </mxGeometry>
        </mxCell>
        <mxCell id="vXLXtyZZ7c6KgQ94-d6F-8" value="&lt;font style=&quot;font-size: 22px;&quot;&gt;General&lt;/font&gt;" style="text;html=1;align=left;verticalAlign=middle;whiteSpace=wrap;rounded=0;fontFamily=Roman Serif;fontSource=https%3A%2F%2Fwww.myfonts.com%2Ffr%2Fpages%2Ftags%2Froman%2520serif-fonts;fontSize=20;fontColor=#4D4D4D;" parent="1" vertex="1">
          <mxGeometry x="110" y="270" width="80" height="55" as="geometry" />
        </mxCell>
        <mxCell id="vXLXtyZZ7c6KgQ94-d6F-9" value="&lt;div&gt;Defines&lt;/div&gt;&lt;div style=&quot;font-size: 20px;&quot;&gt;mass distribution function and focal sets&lt;br style=&quot;font-size: 20px;&quot;&gt;&lt;/div&gt;" style="text;html=1;align=left;verticalAlign=middle;whiteSpace=wrap;rounded=0;fontFamily=Roman Serif;fontSource=https%3A%2F%2Fwww.myfonts.com%2Ffr%2Fpages%2Ftags%2Froman%2520serif-fonts;fontSize=20;fontColor=#4D4D4D;" parent="1" vertex="1">
          <mxGeometry x="473.5" y="405" width="213" height="81" as="geometry" />
        </mxCell>
        <mxCell id="vXLXtyZZ7c6KgQ94-d6F-10" value="&lt;div style=&quot;font-size: 20px;&quot;&gt;Defines&lt;/div&gt;&lt;div style=&quot;font-size: 20px;&quot;&gt;Focal sets are nested&lt;/div&gt;&lt;div style=&quot;font-size: 20px;&quot;&gt;Linked with fuzzy sets&lt;br style=&quot;font-size: 20px;&quot;&gt;&lt;/div&gt;" style="text;html=1;align=left;verticalAlign=middle;resizable=0;points=[];autosize=1;strokeColor=none;fillColor=none;fontFamily=Roman Serif;fontSource=https%3A%2F%2Fwww.myfonts.com%2Ffr%2Fpages%2Ftags%2Froman%2520serif-fonts;fontSize=20;fontColor=#4D4D4D;" parent="1" vertex="1">
          <mxGeometry x="42" y="620" width="210" height="90" as="geometry" />
        </mxCell>
        <mxCell id="vXLXtyZZ7c6KgQ94-d6F-13" value="&lt;div style=&quot;font-size: 19px;&quot;&gt;&lt;font style=&quot;font-size: 16px;&quot;&gt;$$$$&lt;/font&gt;&lt;/div&gt;" style="text;html=1;align=center;verticalAlign=middle;resizable=0;points=[];autosize=1;strokeColor=none;fillColor=none;fontSize=20;fontColor=#4D4D4D;fontFamily=Roman Serif;fontSource=https%3A%2F%2Fwww.myfonts.com%2Ffr%2Fpages%2Ftags%2Froman%2520serif-fonts;" parent="1" vertex="1">
          <mxGeometry x="550" y="390" width="60" height="40" as="geometry" />
        </mxCell>
        <mxCell id="vXLXtyZZ7c6KgQ94-d6F-16" value="" style="shape=flexArrow;endArrow=classic;html=1;rounded=0;labelBackgroundColor=#4D4D4D;fillColor=#000000;fontFamily=Roman Serif;fontSource=https%3A%2F%2Fwww.myfonts.com%2Ffr%2Fpages%2Ftags%2Froman%2520serif-fonts;" parent="1" edge="1">
          <mxGeometry width="50" height="50" relative="1" as="geometry">
            <mxPoint x="80" y="279" as="sourcePoint" />
            <mxPoint x="80" y="480" as="targetPoint" />
          </mxGeometry>
        </mxCell>
        <mxCell id="vXLXtyZZ7c6KgQ94-d6F-17" value="Defines&lt;div style=&quot;font-size: 20px;&quot;&gt;Credal sets&lt;/div&gt;" style="text;html=1;align=left;verticalAlign=middle;whiteSpace=wrap;rounded=0;fontFamily=Roman Serif;fontSource=https%3A%2F%2Fwww.myfonts.com%2Ffr%2Fpages%2Ftags%2Froman%2520serif-fonts;fontSize=20;fontColor=#4D4D4D;" parent="1" vertex="1">
          <mxGeometry x="477" y="275" width="113" height="55" as="geometry" />
        </mxCell>
        <mxCell id="vXLXtyZZ7c6KgQ94-d6F-18" value="&lt;div&gt;Specific&lt;/div&gt;" style="text;html=1;align=left;verticalAlign=middle;whiteSpace=wrap;rounded=0;fontFamily=Roman Serif;fontSource=https%3A%2F%2Fwww.myfonts.com%2Ffr%2Fpages%2Ftags%2Froman%2520serif-fonts;fontSize=20;fontColor=#4D4D4D;" parent="1" vertex="1">
          <mxGeometry x="110" y="440" width="80" height="55" as="geometry" />
        </mxCell>
        <mxCell id="vXLXtyZZ7c6KgQ94-d6F-19" value="&lt;div&gt;Precise&lt;/div&gt;&lt;div&gt;Probabilities&lt;br&gt;&lt;/div&gt;" style="rounded=1;whiteSpace=wrap;html=1;fontFamily=Roman Serif;fontSource=https%3A%2F%2Fwww.myfonts.com%2Ffr%2Fpages%2Ftags%2Froman%2520serif-fonts;fontSize=24;" parent="1" vertex="1">
          <mxGeometry x="270" y="550" width="180" height="60" as="geometry" />
        </mxCell>
        <mxCell id="vXLXtyZZ7c6KgQ94-d6F-21" value="Focal sets are atoms" style="text;html=1;align=left;verticalAlign=middle;resizable=0;points=[];autosize=1;strokeColor=none;fillColor=none;fontFamily=Roman Serif;fontSource=https%3A%2F%2Fwww.myfonts.com%2Ffr%2Fpages%2Ftags%2Froman%2520serif-fonts;fontSize=20;fontColor=#4D4D4D;" parent="1" vertex="1">
          <mxGeometry x="270" y="621" width="190" height="40" as="geometry" />
        </mxCell>
        <mxCell id="vXLXtyZZ7c6KgQ94-d6F-22" value="&lt;div&gt;&lt;font style=&quot;font-size: 21px;&quot;&gt;$$\underline{P}=\overline{P}$$&lt;/font&gt;&lt;/div&gt;" style="text;html=1;align=center;verticalAlign=middle;resizable=0;points=[];autosize=1;strokeColor=none;fillColor=none;fontSize=20;fontColor=#4D4D4D;fontFamily=Roman Serif;fontSource=https%3A%2F%2Fwww.myfonts.com%2Ffr%2Fpages%2Ftags%2Froman%2520serif-fonts;" parent="1" vertex="1">
          <mxGeometry x="150" y="645" width="300" height="40" as="geometry" />
        </mxCell>
        <mxCell id="vXLXtyZZ7c6KgQ94-d6F-28" value="&lt;div style=&quot;font-size: 20px;&quot;&gt;&lt;font style=&quot;font-size: 20px;&quot;&gt;$$\underline{P}, \overline{P}$$&lt;/font&gt;&lt;/div&gt;" style="text;html=1;align=left;verticalAlign=middle;whiteSpace=wrap;rounded=0;fontFamily=Roman Serif;fontSource=https%3A%2F%2Fwww.myfonts.com%2Ffr%2Fpages%2Ftags%2Froman%2520serif-fonts;fontSize=20;fontColor=#4D4D4D;" parent="1" vertex="1">
          <mxGeometry x="546" y="262" width="50" height="55" as="geometry" />
        </mxCell>
        <mxCell id="vXLXtyZZ7c6KgQ94-d6F-30" value="&lt;div style=&quot;font-size: 20px;&quot;&gt;&lt;font style=&quot;font-size: 20px;&quot;&gt;$$\mathrm{Bel}, \mathrm{Pl}$$&lt;/font&gt;&lt;/div&gt;" style="text;html=1;align=left;verticalAlign=middle;whiteSpace=wrap;rounded=0;fontFamily=Roman Serif;fontSource=https%3A%2F%2Fwww.myfonts.com%2Ffr%2Fpages%2Ftags%2Froman%2520serif-fonts;fontSize=20;fontColor=#4D4D4D;" parent="1" vertex="1">
          <mxGeometry x="545" y="393" width="50" height="55" as="geometry" />
        </mxCell>
        <mxCell id="vXLXtyZZ7c6KgQ94-d6F-31" value="&lt;div style=&quot;font-size: 20px;&quot;&gt;&lt;font style=&quot;font-size: 20px;&quot;&gt;$$\underline{F}, \overline{F}$$&lt;/font&gt;&lt;/div&gt;" style="text;html=1;align=left;verticalAlign=middle;whiteSpace=wrap;rounded=0;fontFamily=Roman Serif;fontSource=https%3A%2F%2Fwww.myfonts.com%2Ffr%2Fpages%2Ftags%2Froman%2520serif-fonts;fontSize=20;fontColor=#4D4D4D;" parent="1" vertex="1">
          <mxGeometry x="580" y="621" width="50" height="55" as="geometry" />
        </mxCell>
        <mxCell id="_lMC_sWpd6sxSVuPJfEx-3" value="&lt;div style=&quot;font-size: 21px;&quot;&gt;&lt;font style=&quot;font-size: 19px;&quot;&gt;$$\pi(\omega), \mathrm{Nec}, \Pi$$&lt;/font&gt;&lt;/div&gt;" style="text;html=1;align=left;verticalAlign=middle;whiteSpace=wrap;rounded=0;fontFamily=Roman Serif;fontSource=https%3A%2F%2Fwww.myfonts.com%2Ffr%2Fpages%2Ftags%2Froman%2520serif-fonts;fontSize=20;fontColor=#4D4D4D;" vertex="1" parent="1">
          <mxGeometry x="112" y="612.5" width="50" height="55" as="geometry" />
        </mxCell>
      </root>
    </mxGraphModel>
  </diagram>
</mxfile>
